<?xml version="1.0" standalone="no"?>
<!DOCTYPE svg PUBLIC "-//W3C//DTD SVG 20010904//EN"
 "http://www.w3.org/TR/2001/REC-SVG-20010904/DTD/svg10.dtd">
<svg version="1.0" xmlns="http://www.w3.org/2000/svg"
 width="898.000000pt" height="553.000000pt" viewBox="0 0 898.000000 553.000000"
 preserveAspectRatio="xMidYMid meet">

<g transform="translate(0.000000,553.000000) scale(0.100000,-0.100000)"
fill="#000000" stroke="none">
<path d="M6045 4244 c-346 -51 -644 -189 -885 -410 -132 -120 -887 -852 -1490
-1444 -620 -609 -636 -622 -854 -699 -328 -116 -701 -56 -983 158 -183 138
-324 351 -384 578 -27 101 -36 310 -19 424 41 284 196 542 433 720 102 77 275
161 402 195 92 25 115 28 295 28 174 1 205 -2 285 -23 202 -52 350 -131 539
-286 180 -147 447 -361 577 -460 63 -48 120 -93 128 -99 28 -21 0 16 -138 184
-512 624 -624 733 -878 859 -194 96 -364 139 -588 148 -294 11 -560 -55 -807
-200 -375 -221 -626 -573 -720 -1011 -30 -138 -32 -423 -4 -571 87 -466 366
-851 791 -1093 141 -80 372 -157 550 -182 104 -14 357 -12 465 5 315 48 602
185 840 401 167 152 1182 1137 1745 1695 360 356 450 417 713 481 106 26 310
30 417 9 331 -66 603 -272 755 -571 146 -289 146 -648 1 -945 -85 -173 -220
-330 -375 -435 -202 -136 -414 -200 -661 -200 -203 0 -362 37 -540 126 -107
53 -175 102 -463 335 -244 197 -517 409 -526 409 -21 0 614 -750 695 -821 156
-137 321 -234 500 -293 163 -54 238 -67 424 -73 143 -4 189 -2 290 15 313 54
591 198 815 423 120 120 206 241 281 394 105 215 147 382 156 620 17 441 -145
847 -462 1160 -121 119 -252 212 -410 290 -247 121 -393 156 -680 160 -110 2
-213 1 -230 -1z"/>
</g>
</svg>
